{
  "title": "Still.The.Water.2014.WEBRip.AC3.x264.HORiZON-ArtSubs",
  "uid": 10393332,
  "size": 2124555067,
  "categoryP": "video",
  "categoryS": "movies",
  "magnet": "?xt=urn:btih:4e499a3db83a4c19a1f803b10e540fafa11ed34f&amp;dn=Still.The.Water.2014.WEBRip.AC3.x264.HORiZON-ArtSubs&amp;tr=udp%3A%2F%2Ftracker.openbittorrent.com%3A80&amp;tr=udp%3A%2F%2Fopen.demonii.com%3A1337&amp;tr=udp%3A%2F%2Ftracker.coppersurfer.tk%3A6969&amp;tr=udp%3A%2F%2Fexodus.desync.com%3A6969",
  "seeders": 52,
  "leechers": 4,
  "uploader": "lletaif",
  "files": 1,
  "time": 1403227182,
  "description": "Title:\nStill the Water Aka Futatsume no Mado\n\n\nCountry:\nJapan, 2014\n\n\nNo Subtitle\n\n\nIMDB: &lt;a href=&quot;\nhttp://www.imdb.com/title/tt3230162/?ref_=nv_sr_1&quot; rel=&quot;nofollow&quot; target=&quot;_NEW&quot;&gt;\nhttp://www.imdb.com/title/tt3230162/?ref_=nv_sr_1&lt;/a&gt;\n\n\nSynopsis:\nOn the subtropical Japanese island of Amami, traditions about nature remain eternal. During the full-moon night of traditional dances in August, 16-year-old Kaito discovers a dead body floating in the sea. His girlfriend Kyoko will attempt to help him understand this mysterious discovery. Together, Kaito and Kyoko will learn to become adults by experiencing the interwoven cycles of life, death and love. New film from the japanese master director Naomi Kawase.\n\n\nTrivia:\nOfficial Selection Cannes Film Festival 2014\n\n\nMedia Info:\n\nGeneral\nUnique ID                                : 253270391073998773801793181844213809853 (0xBE8A1A5F7E372DB18600612AD9AB42BD)\nComplete name                            : Still.The.Water.2014.WEBRip.AC3.x264.HORiZON-ArtSubs\nFormat                                   : Matroska\nFormat version                           : Version 2\nFile size                                : 1.98 GiB\nDuration                                 : 2h 0mn\nOverall bit rate                         : 2 345 Kbps\nMovie name                               : Futatsume.no.Mado.2014.1080p.HDTV.x264.10bit.AAC5.1\nEncoded date                             : UTC 2014-06-19 21:24:51\nWriting application                      : DVDFab 9.1.4.0\nWriting library                          : libebml v0.7.8 + libmatroska v0.8.1\n\nVideo\nID                                       : 1\nFormat                                   : AVC\nFormat/Info                              : Advanced Video Codec\nFormat profile                           : &lt;a class=&quot;__cf_email__&quot; href=&quot;/cdn-cgi/l/email-protection&quot; data-cfemail=&quot;4109282629010d756f70&quot;&gt;[email&amp;#160;protected]&lt;/a&gt;&lt;script cf-hash='f9e31' type=&quot;text/javascript&quot;&gt;\n/* &lt;![CDATA[ */!function(){try{var t=&quot;currentScript&quot;in document?document.currentScript:function(){for(var t=document.getElementsByTagName(&quot;script&quot;),e=t.length;e--;)if(t[e].getAttribute(&quot;cf-hash&quot;))return t[e]}();if(t&amp;&amp;t.previousSibling){var e,r,n,i,c=t.previousSibling,a=c.getAttribute(&quot;data-cfemail&quot;);if(a){for(e=&quot;&quot;,r=parseInt(a.substr(0,2),16),n=2;a.length-n;n+=2)i=parseInt(a.substr(n,2),16)^r,e+=String.fromCharCode(i);e=document.createTextNode(e),c.parentNode.replaceChild(e,c)}}}catch(u){}}();/* ]]&gt; */&lt;/script&gt;\nFormat settings, CABAC                   : Yes\nFormat settings, ReFrames                : 2 frames\nCodec ID                                 : V_MPEG4/ISO/AVC\nDuration                                 : 2h 0mn\nBit rate                                 : 2 106 Kbps\nWidth                                    : 1 280 pixels\nHeight                                   : 544 pixels\nDisplay aspect ratio                     : 2.35:1\nFrame rate mode                          : Constant\nFrame rate                               : 23.976 fps\nColor space                              : YUV\nChroma subsampling                       : 4:2:0\nBit depth                                : 8 bits\nScan type                                : Progressive\nBits/(Pixel*Frame)                       : 0.126\nStream size                              : 1.78 GiB (90%)\nWriting library                          : x264 core\nDefault                                  : Yes\nForced                                   : No\nColor primaries                          : BT.709\nTransfer characteristics                 : BT.709\nMatrix coefficients                      : BT.709\n\nAudio\nID                                       : 2\nFormat                                   : AC-3\nFormat/Info                              : Audio Coding 3\nMode extension                           : CM (complete main)\nFormat settings, Endianness              : Big\nCodec ID                                 : A_AC3\nDuration                                 : 2h 0mn\nBit rate mode                            : Constant\nBit rate                                 : 192 Kbps\nChannel(s)                               : 2 channels\nChannel positions                        : Front: L R\nSampling rate                            : 48.0 KHz\nBit depth                                : 16 bits\nCompression mode                         : Lossy\nStream size                              : 166 MiB (8%)\nDefault                                  : Yes\nForced                                   : No\n\n",
  "parsed": {
    "xt": "urn:btih:4e499a3db83a4c19a1f803b10e540fafa11ed34f",
    "dn": "Still.The.Water.2014.WEBRip.AC3.x264.HORiZON-ArtSubs",
    "tr": [
      "udp://exodus.desync.com:6969",
      "udp://open.demonii.com:1337",
      "udp://tracker.coppersurfer.tk:6969",
      "udp://tracker.openbittorrent.com:80"
    ],
    "infoHash": "4e499a3db83a4c19a1f803b10e540fafa11ed34f",
    "infoHashBuffer": {
      "type": "Buffer",
      "data": [
        78,
        73,
        154,
        61,
        184,
        58,
        76,
        25,
        161,
        248,
        3,
        177,
        14,
        84,
        15,
        175,
        161,
        30,
        211,
        79
      ]
    },
    "name": "Still.The.Water.2014.WEBRip.AC3.x264.HORiZON-ArtSubs",
    "announce": [
      "udp://exodus.desync.com:6969",
      "udp://open.demonii.com:1337",
      "udp://tracker.coppersurfer.tk:6969",
      "udp://tracker.openbittorrent.com:80"
    ],
    "urlList": []
  },
  "previous": 56,
  "peers": 27,
  "last_updated": "2016-12-25T00:40:44.595Z"
}